<?xml version="1.0" ?><svg data-name="Layer 1" height="24" id="Layer_1" viewBox="0 0 24 24" width="24" xmlns="http://www.w3.org/2000/svg"><title/><g><path d="M20.9,21.989a.5.5,0,0,1-.5-.5,5.834,5.834,0,0,0-5.828-5.827H9.433a5.834,5.834,0,0,0-5.828,5.827.5.5,0,0,1-1,0,6.835,6.835,0,0,1,6.828-6.827h5.134A6.835,6.835,0,0,1,21.4,21.489.5.5,0,0,1,20.9,21.989Z" style="fill: #231f20"/><path d="M12,13.328a5.659,5.659,0,1,1,5.659-5.659A5.665,5.665,0,0,1,12,13.328ZM12,3.011a4.659,4.659,0,1,0,4.659,4.658A4.664,4.664,0,0,0,12,3.011Z" style="fill: #231f20"/></g></svg>